<svg width="75" height="39" viewBox="0 0 75 39" fill="none" xmlns="http://www.w3.org/2000/svg">
<path d="M6.45587 33.3983L5.53685 33.0041L5.53685 33.0041L6.45587 33.3983ZM3.67634 38.0846C3.88129 38.5975 4.46319 38.8471 4.97603 38.6421L13.3333 35.3022C13.8462 35.0972 14.0958 34.5153 13.8908 34.0025C13.6859 33.4896 13.104 33.24 12.5911 33.445L5.16241 36.4138L2.19356 28.9851C1.98861 28.4723 1.40671 28.2227 0.893867 28.4276C0.381021 28.6326 0.131426 29.2145 0.336383 29.7273L3.67634 38.0846ZM5.53685 33.0041L3.6859 37.3193L5.52395 38.1077L7.3749 33.7925L5.53685 33.0041ZM74.566 3.52565C47.3762 -6.65893 16.9823 6.32057 5.53685 33.0041L7.3749 33.7925C18.3993 8.09067 47.675 -4.41132 73.8645 5.39857L74.566 3.52565Z" fill="#C5C5C5"/>
</svg>
