<svg width="443" height="117" viewBox="0 0 443 117" fill="none" xmlns="http://www.w3.org/2000/svg">
<rect x="178.5" y="20.5" width="264" height="83" rx="7.5" fill="#E9EAFF"/>
<rect x="178.5" y="20.5" width="264" height="83" rx="7.5" stroke="#C8C8C8"/>
<rect x="200.5" y="38" width="97" height="48" rx="7.5" fill="#F3F3F3"/>
<rect x="200.5" y="38" width="97" height="48" rx="7.5" stroke="#D3D3D3"/>
<g clip-path="url(#clip0_112_6)">
<path d="M247.275 70C247.437 70 247.575 69.8567 247.575 69.68V62.24C247.575 62.24 247.95 62.96 248.625 64.16L251.55 69.52C251.684 69.8192 251.981 70 252.225 70H254.25V58H252.225C252.09 58 251.925 58.1195 251.925 58.32V65.84L250.575 63.28L247.875 58.4C247.744 58.1513 247.461 58 247.2 58H245.25V70H247.275Z" fill="black"/>
<path d="M273.45 61.36H274.425C274.674 61.36 274.875 61.1451 274.875 60.88V58.8H276.975V61.36H279V63.28H276.975V66.72C276.975 67.56 277.354 67.92 278.025 67.92H279V70H277.725C275.996 70 274.875 68.8057 274.875 66.8V63.28H273.45V61.36Z" fill="black"/>
<path d="M263.325 61.36V66.32C263.325 67.4403 262.931 68.3847 262.35 69.04C261.769 69.6953 260.967 70 259.875 70C258.783 70 257.906 69.6953 257.325 69.04C256.754 68.3847 256.35 67.4403 256.35 66.32V61.36H257.55C257.806 61.36 258.058 61.4097 258.225 61.6C258.392 61.7797 258.45 61.8852 258.45 62.16V66.32C258.45 66.9647 258.484 67.3629 258.75 67.68C259.016 67.9865 259.344 68.08 259.875 68.08C260.416 68.08 260.659 67.9865 260.925 67.68C261.191 67.3629 261.225 66.9647 261.225 66.32V62.16C261.225 61.8852 261.283 61.7102 261.45 61.52C261.597 61.3528 261.752 61.3568 261.975 61.36C262.006 61.3604 262.094 61.36 262.125 61.36H263.325Z" fill="black"/>
<path d="M269.7 65.52L272.25 61.36H270.3C270.054 61.36 269.836 61.454 269.7 61.68L268.5 63.6L267.375 61.76C267.239 61.534 266.946 61.36 266.7 61.36H264.825L267.375 65.44L264.6 70H266.55C266.794 70 267.014 69.7429 267.15 69.52L268.5 67.36L269.925 69.6C270.061 69.8229 270.281 70 270.525 70H272.475L269.7 65.52Z" fill="black"/>
<path d="M231.6 70H239.925C240.191 70 240.445 69.9005 240.675 69.76C240.905 69.6195 241.142 69.4433 241.275 69.2C241.408 68.9567 241.5 68.6808 241.5 68.3999C241.5 68.119 241.408 67.8432 241.275 67.6001L235.65 57.28C235.517 57.0368 235.355 56.8604 235.125 56.72C234.895 56.5796 234.566 56.48 234.3 56.48C234.034 56.48 233.78 56.5796 233.55 56.72C233.32 56.8604 233.158 57.0368 233.025 57.28L231.6 59.92L228.75 54.7998C228.617 54.5566 228.455 54.3004 228.225 54.16C227.995 54.0196 227.741 54 227.475 54C227.209 54 226.955 54.0196 226.725 54.16C226.495 54.3004 226.258 54.5566 226.125 54.7998L219.15 67.6001C219.017 67.8432 219 68.119 219 68.3999C219 68.6808 219.017 68.9567 219.15 69.2C219.283 69.4432 219.52 69.6195 219.75 69.76C219.98 69.9005 220.234 70 220.5 70H225.75C227.83 70 229.344 69.0046 230.4 67.12L232.95 62.4L234.3 59.92L238.425 67.44H232.95L231.6 70ZM225.675 67.44H222L227.475 57.36L230.25 62.4L228.412 65.818C227.711 67.0408 226.912 67.44 225.675 67.44Z" fill="#00DC82"/>
</g>
<rect x="320.5" y="38" width="97" height="48" rx="7.5" fill="#F3F3F3"/>
<rect x="320.5" y="38" width="97" height="48" rx="7.5" stroke="#D3D3D3"/>
<g clip-path="url(#clip1_112_6)">
<path fill-rule="evenodd" clip-rule="evenodd" d="M331.5 60.8424C331.5 69.9903 333.695 72.1849 342.842 72.1849C351.99 72.1849 354.185 69.9903 354.185 60.8424C354.185 51.6946 351.99 49.5 342.842 49.5C333.695 49.5 331.5 51.6946 331.5 60.8424ZM336.074 63.1987L339.631 55.1135C340.232 53.7505 341.387 53.0113 342.842 53.0113C344.298 53.0113 345.453 53.7505 346.053 55.1135L349.611 63.1987C349.773 63.5914 349.911 64.0997 349.911 64.5385C349.911 66.5483 348.502 67.9574 346.492 67.9574C345.808 67.9574 345.264 67.7827 344.714 67.6059C344.15 67.4247 343.579 67.2413 342.842 67.2413C342.114 67.2413 341.53 67.4264 340.955 67.6083C340.398 67.7843 339.851 67.9574 339.192 67.9574C337.183 67.9574 335.774 66.5483 335.774 64.5385C335.774 64.0997 335.912 63.5914 336.074 63.1987ZM342.842 56.5226L339.331 64.4692C340.371 63.9841 341.572 63.7531 342.842 63.7531C344.067 63.7531 345.314 63.9841 346.307 64.4692L342.842 56.5226Z" fill="black"/>
<path fill-rule="evenodd" clip-rule="evenodd" d="M396.839 55.0826C396.052 55.0826 395.483 55.6405 395.483 56.4171C395.483 57.1936 396.052 57.7515 396.839 57.7515C397.627 57.7515 398.195 57.1936 398.195 56.4171C398.195 55.6405 397.627 55.0826 396.839 55.0826ZM372.032 66.5457C369.931 66.5457 368.411 64.9929 368.411 62.5642C368.411 60.0919 369.931 58.539 372.032 58.539C373.005 58.539 373.727 58.8672 374.154 59.5125V55.4326H376.341V66.3707H374.154V65.5941C373.738 66.2285 373.016 66.5457 372.032 66.5457ZM370.642 62.5642C370.642 61.2079 371.375 60.322 372.491 60.322C373.618 60.322 374.34 61.197 374.34 62.5533C374.34 63.8877 373.618 64.7519 372.491 64.7519C371.375 64.7519 370.642 63.8877 370.642 62.5642ZM379.776 62.5424C379.776 61.197 380.509 60.3329 381.602 60.3329C382.707 60.3329 383.44 61.197 383.44 62.5424C383.44 63.8877 382.707 64.7519 381.602 64.7519C380.509 64.7519 379.776 63.8877 379.776 62.5424ZM403.883 64.2815C403.883 64.6862 403.577 64.9269 402.8 64.9269C401.925 64.9269 401.378 64.4674 401.378 63.9096H399.191C399.245 65.4191 400.678 66.5457 402.756 66.5457C404.726 66.5457 405.983 65.6706 405.983 64.1174C405.983 62.958 405.24 62.1486 403.763 61.8533L402.177 61.5361C401.696 61.4377 401.411 61.197 401.411 60.8798C401.411 60.4095 401.892 60.1579 402.505 60.1579C403.38 60.1579 403.719 60.5626 403.719 61.0438H405.797C405.742 59.6219 404.627 58.539 402.549 58.539C400.613 58.539 399.3 59.5125 399.3 60.9892C399.3 62.3236 400.164 62.9252 401.455 63.1986L403.03 63.5377C403.544 63.6471 403.883 63.8658 403.883 64.2815ZM397.944 66.3707H395.756V58.714H397.944V66.3707ZM389.062 58.714V59.5125C389.62 58.8672 390.364 58.539 391.283 58.539C393 58.539 394.115 59.6547 394.115 61.3829V66.3707H391.928V61.8423C391.928 60.9126 391.403 60.3547 390.495 60.3547C389.587 60.3547 389.062 60.9126 389.062 61.8423V66.3707H386.875V58.714H389.062ZM381.602 58.539C379.273 58.539 377.544 60.2235 377.544 62.5424C377.544 64.8613 379.273 66.5457 381.602 66.5457C383.943 66.5457 385.671 64.8613 385.671 62.5424C385.671 60.2235 383.943 58.539 381.602 58.539ZM363.358 60.322C362.242 60.322 361.509 61.2079 361.509 62.5642C361.509 63.8877 362.242 64.7519 363.358 64.7519C364.484 64.7519 365.206 63.8877 365.206 62.5533C365.206 61.197 364.484 60.322 363.358 60.322ZM359.278 62.5642C359.278 64.9929 360.798 66.5457 362.887 66.5457C363.883 66.5457 364.594 66.2285 365.02 65.5941V66.3707H367.208V58.714H365.02V59.5125C364.583 58.8672 363.861 58.539 362.887 58.539C360.798 58.539 359.278 60.0919 359.278 62.5642Z" fill="black"/>
</g>
<path d="M182.816 15H179.134V4.766H182.718C185.742 4.766 187.828 6.852 187.828 9.904C187.828 12.914 185.784 15 182.816 15ZM182.55 6.418H180.926V13.348H182.648C184.692 13.348 185.938 12.032 185.938 9.904C185.938 7.734 184.664 6.418 182.55 6.418ZM188.839 11.528C188.839 9.372 190.393 7.888 192.535 7.888C194.677 7.888 196.231 9.372 196.231 11.528C196.231 13.684 194.677 15.168 192.535 15.168C190.393 15.168 188.839 13.684 188.839 11.528ZM190.547 11.528C190.547 12.788 191.359 13.642 192.535 13.642C193.711 13.642 194.523 12.788 194.523 11.528C194.523 10.268 193.711 9.414 192.535 9.414C191.359 9.414 190.547 10.268 190.547 11.528ZM197.179 11.528C197.179 9.386 198.593 7.874 200.637 7.874C202.527 7.874 203.815 8.924 203.997 10.59H202.289C202.093 9.806 201.519 9.4 200.707 9.4C199.615 9.4 198.887 10.226 198.887 11.528C198.887 12.83 199.559 13.642 200.651 13.642C201.505 13.642 202.107 13.222 202.289 12.466H204.011C203.801 14.076 202.457 15.182 200.651 15.182C198.551 15.182 197.179 13.726 197.179 11.528ZM207.004 15H205.31V4.584H207.004V10.982L209.692 8.084H211.834L209.202 10.828L211.778 15H209.818L208.012 12.088L207.004 13.138V15ZM215.595 15.182C213.537 15.182 212.095 13.684 212.095 11.542C212.095 9.372 213.509 7.874 215.539 7.874C217.611 7.874 218.927 9.26 218.927 11.416V11.934L213.719 11.948C213.845 13.166 214.489 13.782 215.623 13.782C216.561 13.782 217.177 13.418 217.373 12.76H218.955C218.661 14.272 217.401 15.182 215.595 15.182ZM215.553 9.274C214.545 9.274 213.929 9.82 213.761 10.856H217.233C217.233 9.904 216.575 9.274 215.553 9.274ZM224.634 8.056V9.638H224.004C222.772 9.638 222.002 10.296 222.002 11.64V15H220.294V8.098H221.904L222.002 9.106C222.296 8.42 222.954 7.958 223.878 7.958C224.116 7.958 224.354 7.986 224.634 8.056ZM227.834 15H226.042V4.766H227.834V8.994H232.37V4.766H234.162V15H232.37V10.66H227.834V15ZM240.871 8.084H242.579V15H240.997L240.871 14.076C240.451 14.734 239.555 15.182 238.631 15.182C237.035 15.182 236.097 14.104 236.097 12.41V8.084H237.805V11.808C237.805 13.124 238.323 13.656 239.275 13.656C240.353 13.656 240.871 13.026 240.871 11.71V8.084ZM245.925 15H244.343V4.584H246.051V9.092C246.499 8.322 247.423 7.86 248.473 7.86C250.447 7.86 251.651 9.4 251.651 11.584C251.651 13.712 250.349 15.182 248.361 15.182C247.325 15.182 246.443 14.72 246.037 13.922L245.925 15ZM246.065 11.514C246.065 12.76 246.835 13.614 248.011 13.614C249.215 13.614 249.929 12.746 249.929 11.514C249.929 10.282 249.215 9.4 248.011 9.4C246.835 9.4 246.065 10.268 246.065 11.514Z" fill="black"/>
<path d="M164.707 66.7071C165.098 66.3166 165.098 65.6834 164.707 65.2929L158.343 58.9289C157.953 58.5384 157.319 58.5384 156.929 58.9289C156.538 59.3195 156.538 59.9526 156.929 60.3431L162.586 66L156.929 71.6569C156.538 72.0474 156.538 72.6805 156.929 73.0711C157.319 73.4616 157.953 73.4616 158.343 73.0711L164.707 66.7071ZM0.292892 65.2929C-0.0976257 65.6834 -0.0976257 66.3166 0.292892 66.7071L6.65686 73.0711C7.04738 73.4616 7.68054 73.4616 8.07108 73.0711C8.46159 72.6805 8.46159 72.0474 8.07108 71.6569L2.41422 66L8.07108 60.3431C8.46159 59.9526 8.46159 59.3195 8.07108 58.9289C7.68054 58.5384 7.04738 58.5384 6.65686 58.9289L0.292892 65.2929ZM164 65L1 65V67L164 67V65Z" fill="black"/>
<path d="M20.1566 96.94L21.6826 87.224H22.5086L22.3826 88.568C23.0126 87.546 23.8666 87.042 24.9866 87.042C26.5826 87.042 27.6886 88.26 27.6886 90.01C27.6886 92.39 26.1346 94.168 24.0906 94.168C22.9146 94.168 22.0466 93.58 21.7386 92.614L21.0666 96.94H20.1566ZM22.0326 91.228C22.0326 92.572 22.7466 93.342 24.0206 93.342C25.5746 93.342 26.7646 91.914 26.7646 90.038C26.7646 88.722 25.9946 87.868 24.8046 87.868C23.2366 87.868 22.0326 89.338 22.0326 91.228ZM34.2059 87.224H35.1159L34.0519 94H33.2539L33.3379 92.782C32.7219 93.72 31.9799 94.168 30.9439 94.168C29.4459 94.168 28.5499 93.02 28.8159 91.354L29.4739 87.224H30.3839L29.7539 91.144C29.5299 92.572 30.0759 93.328 31.1959 93.328C32.4979 93.328 33.3939 92.348 33.6459 90.752L34.2059 87.224ZM36.8798 94H36.0678L37.6778 83.794H38.5878L37.8318 88.568C38.4618 87.546 39.3298 87.042 40.4498 87.042C42.0318 87.042 43.1378 88.26 43.1378 90.01C43.1378 92.39 41.5838 94.168 39.5398 94.168C38.3778 94.168 37.4958 93.58 37.1878 92.614L36.8798 94ZM37.4818 91.228C37.4818 92.572 38.1958 93.342 39.4698 93.342C41.0238 93.342 42.2138 91.914 42.2138 90.038C42.2138 88.722 41.4578 87.868 40.2538 87.868C38.6998 87.868 37.4818 89.338 37.4818 91.228ZM45.0589 94H44.1489L45.7589 83.794H46.6689L45.0589 94ZM48.9483 85.348C48.5983 85.348 48.3463 85.096 48.3463 84.76C48.3463 84.326 48.7243 83.934 49.1583 83.934C49.4943 83.934 49.7463 84.186 49.7463 84.522C49.7463 84.956 49.3823 85.348 48.9483 85.348ZM47.1283 94L48.1923 87.224H49.1163L48.0383 94H47.1283ZM50.0541 91.158C50.0541 88.834 51.6361 87.042 53.6801 87.042C55.2061 87.042 56.1721 87.882 56.3401 89.352H55.3881C55.2901 88.442 54.6321 87.882 53.6521 87.882C52.1541 87.882 50.9921 89.296 50.9921 91.116C50.9921 92.46 51.7761 93.342 52.9661 93.342C53.9601 93.342 54.7721 92.782 55.1081 91.872H56.0601C55.6261 93.286 54.4221 94.168 52.9521 94.168C51.2301 94.168 50.0541 92.936 50.0541 91.158ZM59.0812 94.168C57.8772 94.168 57.0932 93.454 57.0932 92.362C57.0932 91.018 58.1292 90.15 59.9352 89.996L62.1472 89.828L62.1752 89.632C62.3992 88.47 61.8392 87.826 60.6352 87.826C59.4872 87.826 58.8292 88.33 58.6752 89.296H57.7932C58.0032 87.868 59.0812 87.042 60.6912 87.042C62.4132 87.042 63.3512 88.036 63.0992 89.604L62.4132 94H61.6152L61.6992 92.81C61.1812 93.65 60.1872 94.168 59.0812 94.168ZM59.3612 93.398C60.7472 93.398 61.7552 92.432 61.9932 90.906L62.0492 90.528L60.0332 90.696C58.7312 90.808 58.0172 91.396 58.0172 92.32C58.0172 92.978 58.5352 93.398 59.3612 93.398ZM65.7159 94H64.7919L65.7439 88.008H64.4279L64.5539 87.224H65.8699L66.2059 85.082H67.1159L66.7799 87.224H68.1099L67.9839 88.008H66.6539L65.7159 94ZM70.1261 85.348C69.7761 85.348 69.5241 85.096 69.5241 84.76C69.5241 84.326 69.9021 83.934 70.3361 83.934C70.6721 83.934 70.9241 84.186 70.9241 84.522C70.9241 84.956 70.5601 85.348 70.1261 85.348ZM68.3061 94L69.3701 87.224H70.2941L69.2161 94H68.3061ZM71.2319 91.088C71.2319 88.862 72.9679 87.042 75.0959 87.042C76.8739 87.042 78.0779 88.302 78.0779 90.122C78.0779 92.362 76.3419 94.168 74.2279 94.168C72.4499 94.168 71.2319 92.922 71.2319 91.088ZM72.1699 91.046C72.1699 92.46 72.9959 93.342 74.3119 93.342C75.8659 93.342 77.1399 91.914 77.1399 90.164C77.1399 88.75 76.3139 87.868 74.9979 87.868C73.4439 87.868 72.1699 89.296 72.1699 91.046ZM79.9348 94H79.0248L80.0888 87.224H80.8868L80.8168 88.442C81.4468 87.504 82.2168 87.042 83.2528 87.042C84.8068 87.042 85.7168 88.19 85.4508 89.87L84.8068 94H83.8828L84.5128 90.066C84.7508 88.652 84.2048 87.882 83.0148 87.882C81.6988 87.882 80.7468 88.876 80.4948 90.472L79.9348 94ZM92.4542 94.168C91.2502 94.168 90.4662 93.454 90.4662 92.362C90.4662 91.018 91.5022 90.15 93.3082 89.996L95.5202 89.828L95.5482 89.632C95.7722 88.47 95.2122 87.826 94.0082 87.826C92.8602 87.826 92.2022 88.33 92.0482 89.296H91.1662C91.3762 87.868 92.4542 87.042 94.0642 87.042C95.7862 87.042 96.7242 88.036 96.4722 89.604L95.7862 94H94.9882L95.0722 92.81C94.5542 93.65 93.5602 94.168 92.4542 94.168ZM92.7342 93.398C94.1202 93.398 95.1282 92.432 95.3662 90.906L95.4222 90.528L93.4062 90.696C92.1042 90.808 91.3902 91.396 91.3902 92.32C91.3902 92.978 91.9082 93.398 92.7342 93.398ZM103.454 87.224H104.364L103.3 94H102.502L102.586 92.782C101.97 93.72 101.228 94.168 100.192 94.168C98.694 94.168 97.798 93.02 98.064 91.354L98.722 87.224H99.632L99.002 91.144C98.778 92.572 99.324 93.328 100.444 93.328C101.746 93.328 102.642 92.348 102.894 90.752L103.454 87.224ZM106.8 94H105.876L106.828 88.008H105.512L105.638 87.224H106.954L107.29 85.082H108.2L107.864 87.224H109.194L109.068 88.008H107.738L106.8 94ZM109.322 91.088C109.322 88.862 111.058 87.042 113.186 87.042C114.964 87.042 116.168 88.302 116.168 90.122C116.168 92.362 114.432 94.168 112.318 94.168C110.54 94.168 109.322 92.922 109.322 91.088ZM110.26 91.046C110.26 92.46 111.086 93.342 112.402 93.342C113.956 93.342 115.23 91.914 115.23 90.164C115.23 88.75 114.404 87.868 113.088 87.868C111.534 87.868 110.26 89.296 110.26 91.046ZM117.474 94.154C117.054 94.154 116.76 93.846 116.76 93.44C116.76 92.922 117.236 92.446 117.754 92.446C118.174 92.446 118.468 92.754 118.468 93.174C118.468 93.692 118.006 94.154 117.474 94.154ZM126.844 94.168C125.262 94.168 124.156 92.95 124.156 91.2C124.156 88.82 125.71 87.042 127.754 87.042C128.916 87.042 129.798 87.63 130.092 88.61L130.848 83.794H131.758L130.148 94H129.322L129.448 92.656C128.832 93.664 127.964 94.168 126.844 94.168ZM127.026 93.342C128.594 93.342 129.812 91.886 129.812 89.982C129.812 88.652 129.098 87.868 127.824 87.868C126.27 87.868 125.08 89.296 125.08 91.172C125.08 92.488 125.836 93.342 127.026 93.342ZM135.065 94.168C133.343 94.168 132.167 92.936 132.167 91.158C132.167 88.834 133.749 87.042 135.793 87.042C137.655 87.042 138.761 88.428 138.467 90.262L138.397 90.724H133.091C133.077 90.85 133.077 90.976 133.077 91.116C133.077 92.488 133.861 93.37 135.079 93.37C136.073 93.37 136.927 92.852 137.263 91.984H138.187C137.739 93.342 136.507 94.168 135.065 94.168ZM135.765 87.84C134.561 87.84 133.567 88.75 133.217 90.052H137.571C137.781 88.722 137.025 87.84 135.765 87.84ZM139.078 92.152H140.002C140.002 92.894 140.618 93.398 141.528 93.398C142.494 93.398 143.152 92.908 143.152 92.166C143.152 91.634 142.914 91.354 142.27 91.116L141.164 90.738C140.226 90.416 139.736 89.842 139.736 88.988C139.736 87.826 140.702 87.042 142.158 87.042C143.572 87.042 144.426 87.826 144.426 89.086H143.502C143.474 88.218 143.026 87.812 142.102 87.812C141.206 87.812 140.632 88.246 140.632 88.946C140.632 89.464 140.926 89.8 141.57 90.038L142.648 90.416C143.642 90.766 144.062 91.27 144.062 92.124C144.062 93.342 143.026 94.168 141.5 94.168C140.072 94.168 139.078 93.342 139.078 92.152ZM32.6712 113H31.7612L32.8252 106.224H33.6232L33.5532 107.442C34.1832 106.504 34.9532 106.042 35.9892 106.042C37.5432 106.042 38.4532 107.19 38.1872 108.87L37.5432 113H36.6192L37.2492 109.066C37.4872 107.652 36.9412 106.882 35.7512 106.882C34.4352 106.882 33.4832 107.876 33.2312 109.472L32.6712 113ZM39.4721 110.088C39.4721 107.862 41.2081 106.042 43.3361 106.042C45.1141 106.042 46.3181 107.302 46.3181 109.122C46.3181 111.362 44.5821 113.168 42.4681 113.168C40.6901 113.168 39.4721 111.922 39.4721 110.088ZM40.4101 110.046C40.4101 111.46 41.2361 112.342 42.5521 112.342C44.1061 112.342 45.3801 110.914 45.3801 109.164C45.3801 107.75 44.5541 106.868 43.2381 106.868C41.6841 106.868 40.4101 108.296 40.4101 110.046ZM52.827 106.224H53.737L52.673 113H51.875L51.959 111.782C51.343 112.72 50.601 113.168 49.565 113.168C48.067 113.168 47.171 112.02 47.437 110.354L48.095 106.224H49.005L48.375 110.144C48.151 111.572 48.697 112.328 49.817 112.328C51.119 112.328 52.015 111.348 52.267 109.752L52.827 106.224ZM56.5229 113L54.8709 106.224H55.7949L56.8449 110.662C56.9289 111.082 57.0129 111.46 57.0969 112.034C57.3069 111.6 57.5029 111.194 57.7969 110.662L60.2609 106.224H61.2689L57.4329 113H56.5229ZM63.9853 113.168C62.2633 113.168 61.0873 111.936 61.0873 110.158C61.0873 107.834 62.6693 106.042 64.7133 106.042C66.5753 106.042 67.6813 107.428 67.3873 109.262L67.3173 109.724H62.0113C61.9973 109.85 61.9973 109.976 61.9973 110.116C61.9973 111.488 62.7813 112.37 63.9993 112.37C64.9933 112.37 65.8473 111.852 66.1833 110.984H67.1073C66.6593 112.342 65.4273 113.168 63.9853 113.168ZM64.6853 106.84C63.4813 106.84 62.4873 107.75 62.1373 109.052H66.4913C66.7013 107.722 65.9453 106.84 64.6853 106.84ZM69.2718 113H68.3618L69.9718 102.794H70.8818L69.2718 113ZM72.2932 113H71.3832L72.9932 102.794H73.9032L72.2932 113ZM77.2607 113.168C75.5387 113.168 74.3627 111.936 74.3627 110.158C74.3627 107.834 75.9447 106.042 77.9887 106.042C79.8507 106.042 80.9567 107.428 80.6627 109.262L80.5927 109.724H75.2867C75.2727 109.85 75.2727 109.976 75.2727 110.116C75.2727 111.488 76.0567 112.37 77.2747 112.37C78.2687 112.37 79.1227 111.852 79.4587 110.984H80.3827C79.9347 112.342 78.7027 113.168 77.2607 113.168ZM77.9607 106.84C76.7567 106.84 75.7627 107.75 75.4127 109.052H79.7667C79.9767 107.722 79.2207 106.84 77.9607 106.84ZM81.2731 111.152H82.1971C82.1971 111.894 82.8131 112.398 83.7231 112.398C84.6891 112.398 85.3471 111.908 85.3471 111.166C85.3471 110.634 85.1091 110.354 84.4651 110.116L83.3591 109.738C82.4211 109.416 81.9311 108.842 81.9311 107.988C81.9311 106.826 82.8971 106.042 84.3531 106.042C85.7671 106.042 86.6211 106.826 86.6211 108.086H85.6971C85.6691 107.218 85.2211 106.812 84.2971 106.812C83.4011 106.812 82.8271 107.246 82.8271 107.946C82.8271 108.464 83.1211 108.8 83.7651 109.038L84.8431 109.416C85.8371 109.766 86.2571 110.27 86.2571 111.124C86.2571 112.342 85.2211 113.168 83.6951 113.168C82.2671 113.168 81.2731 112.342 81.2731 111.152ZM93.1632 104.348C92.8132 104.348 92.5612 104.096 92.5612 103.76C92.5612 103.326 92.9392 102.934 93.3732 102.934C93.7092 102.934 93.9612 103.186 93.9612 103.522C93.9612 103.956 93.5972 104.348 93.1632 104.348ZM91.3432 113L92.4072 106.224H93.3312L92.2532 113H91.3432ZM95.179 113H94.269L95.333 106.224H96.117L96.075 107.218C96.523 106.49 97.307 106.042 98.231 106.042C99.267 106.042 99.967 106.616 100.135 107.54C100.597 106.616 101.479 106.042 102.529 106.042C103.957 106.042 104.811 107.092 104.587 108.562L103.901 113H102.991L103.649 108.758C103.831 107.582 103.327 106.882 102.277 106.882C101.241 106.882 100.387 107.666 100.205 108.8L99.547 113H98.623L99.309 108.73C99.491 107.61 98.959 106.882 97.923 106.882C96.887 106.882 96.033 107.666 95.851 108.786L95.179 113ZM107.753 113.168C106.549 113.168 105.765 112.454 105.765 111.362C105.765 110.018 106.801 109.15 108.607 108.996L110.819 108.828L110.847 108.632C111.071 107.47 110.511 106.826 109.307 106.826C108.159 106.826 107.501 107.33 107.347 108.296H106.465C106.675 106.868 107.753 106.042 109.363 106.042C111.085 106.042 112.023 107.036 111.771 108.604L111.085 113H110.287L110.371 111.81C109.853 112.65 108.859 113.168 107.753 113.168ZM108.033 112.398C109.419 112.398 110.427 111.432 110.665 109.906L110.721 109.528L108.705 109.696C107.403 109.808 106.689 110.396 106.689 111.32C106.689 111.978 107.207 112.398 108.033 112.398ZM113.055 109.976C113.055 107.778 114.651 106.042 116.681 106.042C117.801 106.042 118.655 106.616 118.935 107.568L119.257 106.224H120.083L119.047 112.804C118.697 114.96 117.507 116.108 115.575 116.108C113.825 116.108 112.649 115.072 112.593 113.504H113.517C113.573 114.582 114.371 115.268 115.589 115.268C116.975 115.268 117.871 114.428 118.109 112.888L118.375 111.306C117.787 112.244 116.849 112.79 115.757 112.79C114.161 112.79 113.055 111.642 113.055 109.976ZM113.993 109.934C113.993 111.166 114.735 111.964 115.883 111.964C117.437 111.964 118.627 110.634 118.627 108.856C118.627 107.624 117.899 106.868 116.709 106.868C115.183 106.868 113.993 108.226 113.993 109.934ZM123.923 113.168C122.201 113.168 121.025 111.936 121.025 110.158C121.025 107.834 122.607 106.042 124.651 106.042C126.513 106.042 127.619 107.428 127.325 109.262L127.255 109.724H121.949C121.935 109.85 121.935 109.976 121.935 110.116C121.935 111.488 122.719 112.37 123.937 112.37C124.931 112.37 125.785 111.852 126.121 110.984H127.045C126.597 112.342 125.365 113.168 123.923 113.168ZM124.623 106.84C123.419 106.84 122.425 107.75 122.075 109.052H126.429C126.639 107.722 125.883 106.84 124.623 106.84ZM127.935 111.152H128.859C128.859 111.894 129.475 112.398 130.385 112.398C131.351 112.398 132.009 111.908 132.009 111.166C132.009 110.634 131.771 110.354 131.127 110.116L130.021 109.738C129.083 109.416 128.593 108.842 128.593 107.988C128.593 106.826 129.559 106.042 131.015 106.042C132.429 106.042 133.283 106.826 133.283 108.086H132.359C132.331 107.218 131.883 106.812 130.959 106.812C130.063 106.812 129.489 107.246 129.489 107.946C129.489 108.464 129.783 108.8 130.427 109.038L131.505 109.416C132.499 109.766 132.919 110.27 132.919 111.124C132.919 112.342 131.883 113.168 130.357 113.168C128.929 113.168 127.935 112.342 127.935 111.152Z" fill="black"/>
<defs>
<clipPath id="clip0_112_6">
<rect width="60" height="16" fill="white" transform="translate(219 54)"/>
</clipPath>
<clipPath id="clip1_112_6">
<rect width="75" height="25" fill="white" transform="translate(331.5 49.5)"/>
</clipPath>
</defs>
</svg>
